<svg width="30" height="30" viewBox="0 0 30 30" fill="none" xmlns="http://www.w3.org/2000/svg">
<circle cx="15" cy="15" r="15" fill="white"/>
<path d="M22.0711 17.9289C20.9819 16.8398 19.6855 16.0335 18.2711 15.5454C19.786 14.502 20.7812 12.7558 20.7812 10.7812C20.7812 7.59348 18.1878 5 15 5C11.8122 5 9.21875 7.59348 9.21875 10.7812C9.21875 12.7558 10.214 14.502 11.729 15.5454C10.3145 16.0335 9.01813 16.8398 7.92895 17.9289C6.0402 19.8177 5 22.3289 5 25H6.5625C6.5625 20.3475 10.3475 16.5625 15 16.5625C19.6525 16.5625 23.4375 20.3475 23.4375 25H25C25 22.3289 23.9598 19.8177 22.0711 17.9289ZM15 15C12.6738 15 10.7812 13.1075 10.7812 10.7812C10.7812 8.455 12.6738 6.5625 15 6.5625C17.3262 6.5625 19.2188 8.455 19.2188 10.7812C19.2188 13.1075 17.3262 15 15 15Z" fill="#003D5C"/>
</svg>
